# xmcd
#
# Track frame offsets:
#	150
#	17820
#	32977
#	48952
#	66647
#	86245
#	107212
#	123207
#	138320
#	156535
#	168617
#	187377
#	208435
#	225595
#	239657
#	257275
#	275500
#
# Disc length: 3744 seconds
#
# Revision: 9
# Processed by: cddbd v1.5.2PL0 Copyright (c) Steve Scherf et al.
# Submitted via: EasyCDDAExtractor 10.0.3.1
#
DISCID=0b0e9e11
DTITLE=Cool - Forever
DYEAR=2005
DGENRE=Dance
TTITLE0=이 여름 SUMMER
TTITLE1=고백합시다
TTITLE2=SEXY SUMMER LADY
TTITLE3=애정의 조건
TTITLE4=너에게 가는 여행
TTITLE5=혼자인걸요
TTITLE6=GOODBYE (FEAT: MC 몽)
TTITLE7=스트롱~ 맨
TTITLE8=널 잊는 날
TTITLE9=어머머
TTITLE10=널 잊는 연습
TTITLE11='Ü ÇÏ³ªÀÇ µÑ
TTITLE12=PROMISE
TTITLE13=THE FIGHTER
TTITLE14=FRIENDS
TTITLE15=10 YEARS
TTITLE16=END... AND
EXTD=
EXTT0=
EXTT1=
EXTT2=
EXTT3=
EXTT4=
EXTT5=
EXTT6=
EXTT7=
EXTT8=
EXTT9=
EXTT10=
EXTT11=
EXTT12=
EXTT13=
EXTT14=
EXTT15=
EXTT16=
PLAYORDER=
